<?xml version="1.0" encoding="UTF-8" standalone="no"?>
<!-- Created with Inkscape (http://www.inkscape.org/) -->

<svg
   version="1.1"
   id="svg1"
   width="562.66669"
   height="470.66666"
   viewBox="0 0 562.66669 470.66666"
   xmlns="http://www.w3.org/2000/svg"
   xmlns:svg="http://www.w3.org/2000/svg">
  <defs
     id="defs1" />
  <g
     id="g1">
    <path
       style="fill:#ffc408;fill-opacity:1"
       d="m 249.05236,405.40376 c -4.6334,-1.85953 -7.5642,-9.97249 -5.734,-15.87243 2.243,-7.23014 5.6844,-10.7651 11.8231,-12.14438 4.6356,-1.04153 6.4462,-0.78839 10.876,1.52055 5.8914,3.0708 7.3154,5.80518 5.9609,11.44633 -3.0633,12.75761 -12.7664,19.12728 -22.926,15.04993 z m -24.94077,-45.3078 c -5.13334,-3.63346 -10.00242,-6.61134 -10.82019,-6.61751 -0.81777,-0.006 -2.91777,-1.11973 -4.66667,-2.47457 -1.74889,-1.35484 -4.97981,-2.89191 -7.17981,-3.41572 -5.24693,-1.24926 -20.03827,-8.42387 -21.8383,-10.59276 -0.77567,-0.93463 -4.27937,-3.04779 -7.78601,-4.69591 -5.16605,-2.42804 -7.00811,-4.27786 -9.70902,-9.74991 -3.86004,-7.82043 -9.05058,-12.49504 -19.72053,-17.76036 -6.02494,-2.97314 -8.65862,-5.35303 -12.62681,-11.41004 -7.09606,-10.83135 -8.9857,-16.05982 -8.98807,-24.86913 -0.002,-8.08179 -1.60911,-12.17688 -8.53919,-21.76107 l -3.8746,-5.35851 2.20793,-7.94149 c 1.21436,-4.36782 2.20793,-10.07049 2.20793,-12.67261 0,-5.00568 -5.02516,-16.28696 -8.56265,-19.22282 -4.537026,-3.7654 -1.42361,-11.60433 7.85162,-19.76872 6.76066,-5.95097 8.98782,-11.98813 5.49263,-14.88888 -3.43542,-2.85114 -2.49997,-4.91896 4.57457,-10.11215 7.9739,-5.85338 10.2104,-9.29236 7.87399,-12.10755 -1.30695,-1.57478 -1.07856,-2.53186 1.17717,-4.93297 1.5393,-1.63851 3.74648,-5.07092 4.90485,-7.62758 4.33937,-9.57756 6.80505,-12.56312 11.10114,-13.44177 2.3303,-0.4766 4.99061,-1.435 5.9118,-2.12978 0.92118,-0.69479 4.07488,-2.01996 7.00822,-2.94484 2.93333,-0.92488 6.95255,-3.0777 8.93159,-4.78404 4.03952,-3.4829 9.06841,-12.124427 9.06841,-15.582934 0,-3.41992 2.17713,-4.17034 12.56489,-4.33089 10.02392,-0.15494 8.80857,0.35792 28.28227,-11.934754 6.09907,-3.850015 8.59631,-4.502501 22.85681,-5.972193 17.5348,-1.80714 21.8069,-1.301353 27.2622,3.227615 7.6959,6.389213 13.0527,6.894989 27.7005,2.615434 7.0079,-2.047441 7.7684,-2.015246 17.1371,0.725395 6.6655,1.949873 11.4796,2.599966 15.0387,2.030838 4.446,-0.710947 5.7422,-0.329792 8.60132,2.529359 1.8516,1.851547 3.0126,3.939101 2.58,4.639009 -1.0662,1.725187 4.9573,11.043404 9.3955,14.534471 4.205,3.30766 12.0539,5.64542 19.2894,5.74528 5.4598,0.0754 10.6247,3.62545 10.6247,7.30286 0,3.71144 9.0055,17.07937 14.4571,21.4604 4.2609,3.4242 5.2762,5.10354 5.2762,8.7273 0,11.64172 10.5202,25.75803 22.3257,29.95737 12.3858,4.40572 12.7318,5.97518 3.2743,14.8543 -5.9157,5.55393 -6.6934,6.92723 -6.9044,12.19105 -0.4047,10.10016 0.9839,15.4341 6.0181,23.11736 1.6467,2.51315 2.1608,4.88936 1.5737,7.27361 -1.3605,5.52451 -9.3832,18.92734 -15.2885,25.54108 -2.9465,3.3 -5.3666,6.77111 -5.3781,7.71358 -0.011,0.94246 -0.9072,3.06644 -1.9906,4.71994 -1.582,2.41443 -1.684,4.04177 -0.5179,8.26497 1.9706,7.1371 0.6905,16.19191 -3.3685,23.82575 -3.136,5.89806 -8.4698,11.47576 -10.9739,11.47576 -0.5919,0 -6.0704,2.43994 -12.1745,5.4221 -8.7492,4.27442 -12.0639,6.74386 -15.6601,11.66666 -2.509,3.43451 -4.9239,7.85081 -5.3665,9.814 -0.4425,1.96319 -2.3846,5.14941 -4.3157,7.0805 -3.1593,3.15931 -4.4532,3.49915 -12.9154,3.3921 -16.38702,-0.2073 -22.28062,1.35941 -34.73772,9.2344 -4.9944,3.15728 -9.6605,3.28628 -22.5383,0.62309 -11.704,-2.42044 -24.1997,-1.18529 -34.2802,3.38846 -8.543,3.87616 -11.4928,3.3371 -21.84817,-3.99258 z M 454.91108,244.43803 c -5.9274,-2.09028 -6.7083,-2.86102 -8.4138,-8.30414 -1.739,-5.55013 -1.6667,-6.48075 0.9644,-12.41204 4.4527,-10.03769 13.0994,-13.91785 22.2539,-9.9863 7.5566,3.24534 11.1353,6.43252 9.9051,8.8216 -0.6353,1.23388 -1.1932,4.14282 -1.2397,6.46433 -0.1065,5.31409 -3.4265,11.83961 -7.2971,14.34289 -4.9508,3.20186 -9.3161,3.49166 -16.1728,1.07366 z"
       id="path1" />
  </g>
</svg>
