<?xml version="1.0" encoding="UTF-8" standalone="no"?>
<!-- Created with Inkscape (http://www.inkscape.org/) -->

<svg
   version="1.1"
   id="svg1"
   width="561.33331"
   height="517.33331"
   viewBox="0 0 561.33331 517.33331"
   xmlns="http://www.w3.org/2000/svg"
   xmlns:svg="http://www.w3.org/2000/svg">
  <defs
     id="defs1" />
  <g
     id="g1">
    <path
       style="fill:#2f2f2f;fill-opacity:1"
       d="m 291.19647,420.04583 c -8.45971,-2.89708 -11.57355,-3.31862 -20.21591,-2.73678 -5.61876,0.37829 -13.71875,0.0919 -18,-0.63643 -4.28125,-0.72833 -12.58409,-1.61667 -18.45076,-1.9741 -5.86666,-0.35744 -12.71781,-1.31859 -15.22476,-2.13591 -6.34023,-2.06703 -13.43911,-6.42601 -13.4561,-8.26256 -0.0219,-2.36915 -8.08463,-9.55753 -13.63441,-12.15586 -4.99334,-2.33781 -13.01806,-9.54844 -13.01806,-11.69741 0,-1.94903 -11.07385,-6.28821 -16.12668,-6.31907 -5.96793,-0.0365 -9.20665,-3.36518 -9.20665,-9.46249 0,-3.9487 -1.43273,-5.94384 -10.73997,-14.95588 -5.90698,-5.71963 -12.11576,-10.9224 -13.79729,-11.56171 -3.86666,-1.47011 -12.79607,-14.77783 -12.79607,-19.07031 0,-3.34631 -3.32271,-11.06959 -5.28379,-12.28161 -1.10499,-0.68292 -2.33536,-5.56987 -5.47249,-21.73631 -0.89357,-4.6048 -2.13896,-8.69021 -2.76753,-9.07869 -0.62857,-0.38848 -1.14286,-3.25092 -1.14286,-6.36097 0,-3.11006 -0.67725,-6.3319 -1.505,-7.15965 -0.85453,-0.85453 -1.631793,-6.88077 -1.798358,-13.94294 -0.205798,-8.72559 -0.983794,-13.77311 -2.606612,-16.91129 -2.278821,-4.40676 -2.254002,-4.60587 1.667264,-13.37561 2.466206,-5.51557 3.730946,-10.20781 3.324496,-12.33404 -0.38314,-2.00424 0.47959,-5.6578 2.07396,-8.78302 1.5015,-2.94318 2.39401,-5.68722 1.98336,-6.09787 -0.41065,-0.41066 0.81506,-4.04779 2.72379,-8.08253 1.90874,-4.03474 3.47043,-7.98591 3.47043,-8.78038 0,-0.79447 1.57247,-3.82064 3.49437,-6.72483 2.00536,-3.0303 3.79193,-7.98948 4.19268,-11.63808 0.38407,-3.49675 1.09328,-6.65774 1.57602,-7.0244 0.48273,-0.36667 2.17437,-2.76667 3.7592,-5.33333 4.03644,-6.53711 11.49447,-13.83485 22.97773,-22.48388 10.0153,-7.54338 20,-19.60732 20,-24.164838 0,-5.79049 9.68709,-11.3472 17.17201,-9.85021 7.21214,1.44242 32.54308,-8.865902 40.37744,-16.431436 4.47324,-4.319755 5.47972,-4.690679 12,-4.422422 25.92542,1.06662 39.47426,0.529019 42.87824,-1.701357 2.07619,-1.360368 6.09127,-2.27919 9.95964,-2.27919 5.25414,0 7.09313,0.65425 9.71358,3.455763 4.43726,4.743849 6.07891,5.47838 17.53055,7.843783 9.47055,1.956194 20.1203,2.059797 21.96641,0.213693 2.77033,-2.770333 10.10276,1.772307 12.33417,7.641355 2.45468,6.456311 21.7528,18.178741 29.92686,18.178741 3.39672,0 5.34337,0.926968 7.37765,3.513138 1.5199,1.93223 2.76344,4.38961 2.76344,5.46084 0,2.74961 5.20217,9.72751 8.0491,10.79661 1.31239,0.49284 4.38823,3.89607 6.8352,7.56274 2.75777,4.13238 6.51919,7.71278 9.89477,9.41856 10.71132,5.41274 24.55427,16.7006 24.55427,20.02211 0,0.86138 0.94385,2.34947 2.09745,3.30687 7.05502,5.85515 9.17008,18.31098 5.90154,34.75491 -2.1966,11.05109 -0.94155,19.36966 4.03273,26.72917 4.42234,6.54291 4.19987,8.89469 -1.45482,15.37878 -4.42207,5.07068 -5.95909,13.1097 -4.67558,24.45446 0.80061,7.07649 0.51606,8.55232 -2.71057,14.05815 -3.19855,5.4579 -3.65838,7.78033 -4.07763,20.59422 -0.28813,8.80665 0.0529,14.76732 0.87384,15.27471 4.2185,2.60717 -1.735,11.34138 -7.73063,11.34138 -3.8706,0 -18.923,8.84625 -18.923,11.12098 0,0.87702 -2.4,4.4989 -5.33333,8.04864 -2.93334,3.54974 -5.33334,6.94589 -5.33334,7.54699 0,1.39682 -1.31545,2.64388 -14.7151,13.95006 -6.08382,5.13333 -14.41176,12.64927 -18.50653,16.70207 -4.50608,4.45991 -10.33989,8.59862 -14.77836,10.48429 -11.13098,4.72897 -11.19356,4.77179 -13.33334,9.12292 -2.58428,5.25501 -15.19693,17.13942 -21.8368,20.57597 -8.21029,4.24935 -17.21556,4.37288 -28.82986,0.39549 z M 302.401,373.50415 c 8.96325,-2.46604 12.94503,-4.3199 16.33454,-7.60513 3.48576,-3.37854 5.47726,-4.27718 8.95907,-4.0427 4.0588,0.27335 15.25513,-2.07718 21.1748,-4.44538 1.28679,-0.51478 3.30515,-2.9707 4.48526,-5.45758 1.5927,-3.35637 3.00195,-4.5216 5.46849,-4.5216 1.95629,0 4.40118,-1.37088 5.94485,-3.33334 1.4421,-1.83333 3.58087,-3.33333 4.75281,-3.33333 3.25175,0 16.34231,-14.50038 16.34231,-18.10234 0,-1.69049 0.6,-3.44443 1.33333,-3.89766 1.87601,-1.15944 1.64358,-4.70713 -0.58877,-8.98643 -2.45135,-4.69915 -2.75925,-7.41011 -1.4023,-12.3469 1.25188,-4.55454 4.47708,-7.55862 7.11212,-6.62452 0.98324,0.34855 3.47586,-0.56835 5.53916,-2.03755 2.0633,-1.46919 4.21158,-2.67126 4.77397,-2.67126 1.9522,0 5.89916,-4.42542 5.89916,-6.61428 0,-1.21054 1.53728,-4.26755 3.41617,-6.79335 2.85634,-3.83977 3.282,-5.50747 2.59738,-10.17633 -0.61845,-4.21756 -0.1388,-6.91689 1.96015,-11.03117 3.19291,-6.25861 2.35408,-11.91561 -2.95737,-19.9443 -5.98081,-9.04046 -6.14615,-9.52694 -4.73209,-13.92327 0.74016,-2.30118 1.94835,-7.18397 2.68485,-10.85063 1.26954,-6.32035 1.06191,-7.25542 -3.99678,-18 -5.18705,-11.01724 -13.32541,-21.33334 -16.82985,-21.33334 -3.68066,0 -6.5668,-5.21445 -6.4601,-11.67158 0.0575,-3.48063 -0.79119,-8.22645 -1.88601,-10.54627 -1.97711,-4.18928 -14.42435,-15.91689 -20.0869,-18.92558 -1.62647,-0.86419 -4.54395,-3.04179 -6.48329,-4.83911 -1.93934,-1.79732 -8.10859,-5.52043 -13.70945,-8.27359 -5.60086,-2.75315 -11.34651,-6.07181 -12.76813,-7.3748 -1.42161,-1.30298 -4.00876,-2.36906 -5.74923,-2.36906 -1.74047,0 -6.3227,-1.49408 -10.18273,-3.32017 -9.415,-4.453998 -14.3056,-5.275308 -20.07483,-3.371288 -4.03684,1.33227 -5.88263,1.2157 -11.23705,-0.70972 l -6.40679,-2.30385 -8.75537,4.89628 c -4.81546,2.692958 -9.5081,5.803258 -10.4281,6.911788 -1.82756,2.20208 -4.93826,1.89147 -16.85738,-1.68323 -3.99432,-1.19795 -7.9581,-1.64223 -9.33333,-1.04613 -1.31474,0.56988 -3.48478,0.89871 -4.82232,0.73072 -1.33755,-0.16798 -5.08101,0.93981 -8.31881,2.46176 -3.2378,1.52194 -6.48996,2.76717 -7.22703,2.76717 -1.56436,0 -11.62845,10.10276 -15.02297,15.0807 -1.73025,2.53734 -3.97223,3.66044 -8.66667,4.34147 -3.48295,0.50527 -7.53263,1.52349 -8.9993,2.2627 -3.24976,1.63791 -14,12.56177 -14,14.2261 0,0.65861 -2.4,3.47171 -5.33333,6.25133 -2.93333,2.77962 -5.33333,6.02563 -5.33333,7.21335 0,1.18773 -1.5,3.56869 -3.33334,5.29101 -1.83333,1.72233 -3.33333,3.66235 -3.33333,4.31115 0,0.6488 -2.4717,6.28616 -5.49266,12.52746 -5.89702,12.18323 -6.20437,16.1481 -1.91783,24.74066 2.49079,4.99292 2.4605,4.4933 0.40382,6.65883 -0.92034,0.96905 -3.98701,5.16389 -6.81482,9.32189 -4.828,7.09905 -5.14147,8.16464 -5.14147,17.4775 0,5.45464 0.75889,11.33552 1.68642,13.06863 0.92753,1.7331 1.61018,5.17894 1.51701,7.65741 -0.0932,2.47847 0.7146,6.2158 1.79506,8.30518 1.08046,2.08937 1.99799,5.47866 2.03897,7.53174 0.1087,5.44674 3.96515,13.99131 8.9255,19.77586 2.38333,2.77935 4.33333,5.79116 4.33333,6.69292 0,3.07792 4.65954,11.99683 9.33334,17.8651 8.74909,10.9851 24.45693,26.73233 26.66546,26.73233 1.21167,0 3.55332,1.43732 5.20367,3.19403 2.71978,2.89509 4.0259,3.18084 13.95478,3.05301 9.29679,-0.1197 11.71511,0.32926 15.98359,2.96733 2.76619,1.7096 6.44535,5.35131 8.1759,8.09268 3.5192,5.57477 10.76917,9.90991 18.85873,11.27663 4.25608,0.71906 7.03588,0.18031 13.2504,-2.56804 9.11895,-4.03284 14.42427,-3.71598 22.67706,1.35435 6.51291,4.0014 6.68664,4.0017 21.1016,0.0357 z M 77.863142,338.442 c -6.576869,-2.13859 -5.538202,-9.67691 1.333333,-9.67691 5.598526,0 7.530446,4.0862 3.615112,7.64631 -1.621645,1.47452 -3.848445,2.38829 -4.948445,2.0306 z M 415.64884,103.51878 c -4.94491,-3.0152 -6.34973,-6.429938 -4.57049,-11.109688 1.37818,-3.62487 6.22241,-7.64399 9.21328,-7.64399 3.60994,0 11.16408,4.46853 12.17529,7.20209 1.63268,4.41354 -0.93311,9.476468 -6.03555,11.909658 -5.78112,2.75682 -5.66794,2.76058 -10.78253,-0.35807 z"
       id="path1" />
  </g>
</svg>
